<svg xmlns="http://www.w3.org/2000/svg" width="74" height="74" viewBox="0 0 74 74">
  <g id="Group_18" data-name="Group 18" transform="translate(-524 -1242)">
    <g id="Ellipse_24" data-name="Ellipse 24" transform="translate(524 1242)" fill="none" stroke="#070707" stroke-width="3">
      <circle cx="37" cy="37" r="37" stroke="none"/>
      <circle cx="37" cy="37" r="35.5" fill="none"/>
    </g>
    <path id="_8542016_fax_office_icon" data-name="8542016_fax_office_icon" d="M27.261,9.087v-4.7A1.817,1.817,0,0,0,26.729,3.1L24.159.532A1.817,1.817,0,0,0,22.874,0H9.087A1.817,1.817,0,0,0,7.27,1.817V27.261a1.817,1.817,0,0,0,1.817,1.817H27.261a1.817,1.817,0,0,0,1.817-1.817V10.9A1.817,1.817,0,0,0,27.261,9.087Zm-10.9,15.448a.909.909,0,0,1-.909.909H13.631a.909.909,0,0,1-.909-.909V22.718a.909.909,0,0,1,.909-.909h1.817a.909.909,0,0,1,.909.909Zm0-7.27a.909.909,0,0,1-.909.909H13.631a.909.909,0,0,1-.909-.909V15.448a.909.909,0,0,1,.909-.909h1.817a.909.909,0,0,1,.909.909Zm7.27,7.27a.909.909,0,0,1-.909.909H20.9a.909.909,0,0,1-.909-.909V22.718a.909.909,0,0,1,.909-.909h1.817a.909.909,0,0,1,.909.909Zm0-7.27a.909.909,0,0,1-.909.909H20.9a.909.909,0,0,1-.909-.909V15.448a.909.909,0,0,1,.909-.909h1.817a.909.909,0,0,1,.909.909Zm0-6.361H10.9V3.635h9.087V6.361a.909.909,0,0,0,.909.909h2.726ZM3.635,7.27H1.817A1.817,1.817,0,0,0,0,9.087V27.261a1.817,1.817,0,0,0,1.817,1.817H3.635a1.817,1.817,0,0,0,1.817-1.817V9.087A1.817,1.817,0,0,0,3.635,7.27Z" transform="translate(546.461 1264.461)"/>
  </g>
</svg>