<svg xmlns="http://www.w3.org/2000/svg" width="74" height="74" viewBox="0 0 74 74">
  <g id="Group_17" data-name="Group 17" transform="translate(-509 -713)">
    <g id="Ellipse_23" data-name="Ellipse 23" transform="translate(509 713)" fill="none" stroke="#070707" stroke-width="3">
      <circle cx="37" cy="37" r="37" stroke="none"/>
      <circle cx="37" cy="37" r="35.5" fill="none"/>
    </g>
    <g id="_9025726_phone_icon" data-name="9025726_phone_icon" transform="translate(530 734.127)">
      <rect id="Rectangle_45" data-name="Rectangle 45" width="33" height="33" transform="translate(0 -0.127)" fill="rgba(0,0,0,0)"/>
      <path id="Path_38" data-name="Path 38" d="M47.97,46.372a12.691,12.691,0,0,0,5.92,5.905,1.214,1.214,0,0,0,1.2-.091l3.8-2.535a1.2,1.2,0,0,1,1.154-.106l7.1,3.051a1.2,1.2,0,0,1,.729,1.26,7.287,7.287,0,0,1-7.226,6.361A20.646,20.646,0,0,1,40,39.571a7.286,7.286,0,0,1,6.359-7.226,1.2,1.2,0,0,1,1.262.728l3.051,7.12a1.214,1.214,0,0,1-.091,1.139l-2.535,3.856A1.214,1.214,0,0,0,47.97,46.372Z" transform="translate(-37.441 -29.903)" fill="#070707"/>
    </g>
  </g>
</svg>