<svg xmlns="http://www.w3.org/2000/svg" width="239.789" height="90.674" viewBox="0 0 239.789 90.674">
  <path id="_4047295_eighteen_semi_transportation_truck_wheeler_icon" data-name="4047295_eighteen_semi_transportation_truck_wheeler_icon" d="M383.177,367.227H224.251a5.492,5.492,0,0,0-5.491,5.491v1.769a5.489,5.489,0,0,0,3.531,5.125v53.966h-6.525V395.57c0-.009,0-.018,0-.027v-5.034a2.48,2.48,0,0,0-3.007-2.424l-9.052,1.968a2.48,2.48,0,0,0-1.868,1.779l-.479,1.778h-7.073a12.008,12.008,0,0,0-9.489,4.651l-10.138,13.075a12.024,12.024,0,0,1-7.1,4.408l-6.532,1.328a10.116,10.116,0,0,0-8.014,8.554l-1.161,8.567a5.478,5.478,0,0,0-2.971,4.876v1.769a5.491,5.491,0,0,0,5.491,5.491h7.355a14.2,14.2,0,0,0,27.908,0h41.279a14.2,14.2,0,0,0,27.911,0h4.75a14.2,14.2,0,0,0,27.908,0h28a14.2,14.2,0,0,0,27.908,0h4.75a14.2,14.2,0,0,0,27.911,0h3.131a5.488,5.488,0,0,0,5.439-4.76h.051V374.5s0-.009,0-.013v-1.769A5.491,5.491,0,0,0,383.177,367.227ZM159.5,433.579a1.541,1.541,0,0,1-2.319,0,5.5,5.5,0,0,1-1.274-3.828c0-2.4,1.089-4.354,2.435-4.354s2.431,1.95,2.431,4.354A5.5,5.5,0,0,1,159.5,433.579Zm22.5,12.75a6.842,6.842,0,0,1-12.634,0,6.852,6.852,0,0,1-.181-4.76,6.84,6.84,0,0,1,13.338,2.134A6.773,6.773,0,0,1,181.994,446.329Zm27.966-30.4a2.3,2.3,0,0,1-2.3,2.3H186.57a2.355,2.355,0,0,1-1.7-.755,12.591,12.591,0,0,0-2.711-2.172,2.291,2.291,0,0,1-.615-3.374l7.843-10.118a6.248,6.248,0,0,1,4.9-2.4h13.368a2.3,2.3,0,0,1,2.3,2.3Zm41.221,30.4a6.828,6.828,0,1,1,.526-2.626A6.84,6.84,0,0,1,251.181,446.329Zm32.661,0a6.839,6.839,0,0,1-12.631,0,6.829,6.829,0,0,1-.184-4.76,6.841,6.841,0,0,1,13.341,2.134A6.775,6.775,0,0,1,283.842,446.329Zm55.9,0a6.839,6.839,0,0,1-12.631,0,6.829,6.829,0,0,1-.184-4.76,6.841,6.841,0,0,1,13.341,2.134A6.775,6.775,0,0,1,339.746,446.329Zm32.661,0a6.842,6.842,0,0,1-12.634,0,6.851,6.851,0,0,1-.181-4.76A6.84,6.84,0,0,1,372.93,443.7,6.773,6.773,0,0,1,372.407,446.329Zm-1.285-17.193H239.835a2.9,2.9,0,1,1,0-5.8H371.123a2.9,2.9,0,0,1,0,5.8Zm0-37.295H239.835a2.9,2.9,0,0,1,0-5.8H371.123a2.9,2.9,0,0,1,0,5.8Z" transform="translate(-148.879 -367.227)" fill="#070707"/>
</svg>