<svg xmlns="http://www.w3.org/2000/svg" width="76.053" height="45.64" viewBox="0 0 76.053 45.64">
  <path id="_8725432_arrow_growth_icon" data-name="8725432_arrow_growth_icon" d="M77.743,8.357A3.86,3.86,0,0,0,74.245,6H55.238a3.8,3.8,0,1,0,0,7.6h9.846L43.833,34.854,31.326,22.309a3.8,3.8,0,0,0-5.4,0L3.119,45.118a3.817,3.817,0,1,0,5.4,5.4l20.11-20.148L41.134,42.913a3.8,3.8,0,0,0,5.4,0l23.912-23.95v9.846a3.8,3.8,0,0,0,7.6,0V9.8A3.8,3.8,0,0,0,77.743,8.357Z" transform="translate(-1.994 -6)" fill="#efa462"/>
</svg>