<svg xmlns="http://www.w3.org/2000/svg" width="61" height="60.994" viewBox="0 0 61 60.994">
  <g id="_4177634_arrows_loop_process_round_icon" data-name="4177634_arrows_loop_process_round_icon" transform="translate(-3 -3.002)">
    <path id="Path_64" data-name="Path 64" d="M35.1,33.379a26.065,26.065,0,0,1-4.293.352,25.526,25.526,0,0,1-17.667-7.038h3.59a2.346,2.346,0,1,0,0-4.692H7.346A2.346,2.346,0,0,0,5,24.346v9.385a2.346,2.346,0,0,0,4.692,0V29.883a30.289,30.289,0,0,0,21.115,8.54A30.64,30.64,0,0,0,35.9,38a2.38,2.38,0,1,0-.8-4.692Z" transform="translate(2.692 25.574)" fill="#efa462"/>
    <path id="Path_65" data-name="Path 65" d="M15.765,8.041A25.757,25.757,0,0,1,37.7,14.728H34.135a2.346,2.346,0,1,0,0,4.692H43.52a2.346,2.346,0,0,0,2.346-2.346V7.689a2.346,2.346,0,1,0-4.692,0V11.56A30.5,30.5,0,0,0,14.967,3.419a2.38,2.38,0,0,0,.8,4.692Z" transform="translate(13.442 0)" fill="#efa462"/>
    <path id="Path_66" data-name="Path 66" d="M8.513,38.606a25.808,25.808,0,0,1,8.563-26.3v3.425a2.346,2.346,0,1,0,4.692,0V6.346A2.346,2.346,0,0,0,19.423,4H10.038a2.346,2.346,0,0,0,0,4.692H14.05A30.5,30.5,0,0,0,3,32.154a30.875,30.875,0,0,0,.962,7.625,2.346,2.346,0,0,0,2.346,1.76h.587a2.346,2.346,0,0,0,1.619-2.933Z" transform="translate(0 1.343)" fill="#efa462"/>
    <path id="Path_67" data-name="Path 67" d="M32.731,44.99H28.719a30.5,30.5,0,0,0,11.05-23.462,30.219,30.219,0,0,0-.985-7.7,2.346,2.346,0,1,0-4.528,1.173,26.441,26.441,0,0,1,.821,6.522,25.808,25.808,0,0,1-9.385,19.848V37.951a2.346,2.346,0,0,0-4.692,0v9.385a2.346,2.346,0,0,0,2.346,2.346h9.385a2.346,2.346,0,0,0,0-4.692Z" transform="translate(24.231 11.969)" fill="#efa462"/>
  </g>
</svg>