<svg xmlns="http://www.w3.org/2000/svg" width="38.669" height="65.131" viewBox="0 0 38.669 65.131">
  <path id="_9040250_currency_dollar_icon" data-name="9040250_currency_dollar_icon" d="M4,46.5c.689,7.755,7.039,13.259,16.706,13.971v5.657h4.852V60.474c10.561-.833,17.111-6.69,17.111-15.352,0-7.4-4.406-11.677-13.752-14.087l-3.359-.87V12.477c5.22.512,8.742,3.322,9.63,7.518h6.839C41.255,12.551,34.863,7.211,25.558,6.62V1H20.706V6.736C11.685,7.806,5.493,13.584,5.493,21.419c0,6.764,4.494,11.551,12.38,13.571l2.838.754V54.5c-5.345-.791-9.025-3.722-9.914-7.993H4ZM19.776,28.657c-4.852-1.224-7.444-3.838-7.444-7.518,0-4.392,3.275-7.634,8.374-8.5v16.26l-.93-.233Zm7.4,8.709c5.987,1.5,8.616,4,8.616,8.23,0,5.1-3.843,8.5-10.235,9.021V36.962l1.619.4Z" transform="translate(-4 -1)" fill="#efa462"/>
</svg>