<svg xmlns="http://www.w3.org/2000/svg" width="63.139" height="67.348" viewBox="0 0 63.139 67.348">
  <path id="_8530677_thumbs_up_icon" data-name="8530677_thumbs_up_icon" d="M61.333,37.711a12.439,12.439,0,0,0,1.806-6.556A11.447,11.447,0,0,0,51.85,19.9h-4.8a16.8,16.8,0,0,0,1.164-6.122C48.216,4.2,43.258,0,35.684,0c-8.1,0-7.641,12.487-9.439,14.285-2.992,2.992-6.526,8.74-9.045,10.97H4.209A4.209,4.209,0,0,0,0,29.465V61.034a4.209,4.209,0,0,0,4.209,4.209h8.418a4.211,4.211,0,0,0,4.075-3.15c5.855.132,9.873,5.254,23.388,5.254h2.923c10.144,0,14.731-5.186,14.856-12.54A12.682,12.682,0,0,0,60.15,46,12.217,12.217,0,0,0,61.333,37.711ZM53.21,44.792a5.841,5.841,0,0,1-1.834,7.573c1.013,6.416-2.316,8.668-6.987,8.668H39.414c-9.423,0-15.525-4.975-22.577-4.975V31.569h1.436c3.73,0,8.942-9.325,12.436-12.82C34.44,15.019,33.2,8.8,35.684,6.314c6.218,0,6.218,4.338,6.218,7.462,0,5.152-3.73,7.461-3.73,12.436H51.85a5.137,5.137,0,0,1,4.975,4.975c.012,2.486-1.686,4.973-2.929,4.973A6.32,6.32,0,0,1,53.21,44.792ZM11.575,56.825a3.157,3.157,0,1,1-3.157-3.157A3.157,3.157,0,0,1,11.575,56.825Z" fill="#efa462"/>
</svg>